HIERARCHY
ROOT Hips
{
	OFFSET 0.000000 0.000000 0.000000 
	CHANNELS 6 Xposition Yposition Zposition Yrotation Zrotation Xrotation 
	JOINT Lumbar
	{
		OFFSET 0.000000 0.000000 0.000000 
		CHANNELS 3 Zrotation Xrotation Yrotation
		JOINT Neck
		{
			OFFSET 0.000000 0.445665 0.000000 
			CHANNELS 3 Zrotation Xrotation Yrotation
			End Site
			{
				OFFSET 0.000000 0.227535 0.000000 
			}
		}
		JOINT RightShoulder
		{
			OFFSET 0.019635 0.377685 0.194865 
			CHANNELS 3 Zrotation Xrotation Yrotation
			JOINT RightElbow
			{
				OFFSET 0.000000 -0.243375 0.000000 
				CHANNELS 2 Zrotation Yrotation
				JOINT RightWrist
				{
					OFFSET 0.000000 -0.264825 0.000000 
					CHANNELS 2 Zrotation Xrotation
					End Site
					{
						OFFSET 0.006600 -0.176220 0.000990 
					}
				}
			}
		}
		JOINT LeftShoulder
		{
			OFFSET 0.019635 0.377685 -0.194865 
			CHANNELS 3 Zrotation Xrotation Yrotation
			JOINT LeftElbow
			{
				OFFSET 0.000000 -0.243375 0.000000 
				CHANNELS 2 Zrotation Yrotation
				JOINT LeftWrist
				{
					OFFSET 0.000000 -0.264825 0.000000 
					CHANNELS 2 Zrotation Xrotation
					End Site
					{
						OFFSET 0.006600 -0.176220 -0.000990 
					}
				}
			}
		}
	}
	JOINT RightHip
	{
		OFFSET 0.052140 -0.069960 0.075570 
		CHANNELS 3 Zrotation Xrotation Yrotation
		JOINT RightKnee
		{
			OFFSET 0.000000 -0.402270 0.000000 
			CHANNELS 1 Zrotation
			JOINT RightAnkle
			{
				OFFSET 0.000000 -0.404085 0.000000 
				CHANNELS 3 Zrotation Xrotation Yrotation
				End Site
				{
					OFFSET 0.204105 -0.089430 0.008415 
				}
			}
		}
	}
	JOINT LeftHip
	{
		OFFSET 0.052140 -0.069960 -0.075570 
		CHANNELS 3 Zrotation Xrotation Yrotation
		JOINT LeftKnee
		{
			OFFSET 0.000000 -0.402270 0.000000 
			CHANNELS 1 Zrotation
			JOINT LeftAnkle
			{
				OFFSET 0.000000 -0.404085 0.000000 
				CHANNELS 3 Zrotation Xrotation Yrotation
				End Site
				{
					OFFSET 0.204105 -0.089430 -0.008415 
				}
			}
		}
	}
}
MOTION
Frames: 22
Frame Time: 0.02
-0.00083 0.00049 -0.00123 169.91274 -32.8929 -2.86292 47.06283 3.53632 -16.76937 -9.05044 4.8038 -1.12459 -13.36501 -10.37912 -4.54702 28.18736 122.05971 9.71357 8.62791 -20.00914 20.62411 -8.60272 61.32217 -91.00199 8.08588 -0.31992 37.39613 1.71387 -11.63896 -21.38366 -7.1552 -2.38854 -3.43949 36.84634 13.21429 6.27163 -27.304 -9.68063 4.05645 4.37498
-0.00281 0.00061 0.0022 169.65061 -32.61422 -2.93214 47.02212 3.5708 -16.88767 -9.02032 4.72001 -1.12659 -13.21742 -10.32627 -4.37139 28.27738 119.75715 9.37692 8.1483 -20.87954 20.35661 -8.91555 61.1151 -91.24548 8.1984 -0.36483 36.96992 1.48858 -11.92907 -21.28225 -7.17254 -2.3324 -3.4113 36.34091 13.08782 6.62468 -27.24073 -9.63673 4.05103 4.37021
-0.00478 0.00074 0.00563 169.38905 -32.3363 -3.00126 46.98173 3.6052 -17.00553 -8.99052 4.63649 -1.1286 -13.0708 -10.27352 -4.19632 28.36752 117.46119 9.0411 7.67012 -21.74971 20.08992 -9.2279 60.91051 -91.48756 8.31014 -0.40952 36.54487 1.26386 -12.21778 -21.18109 -7.18985 -2.27646 -3.3832 35.83685 12.96134 6.97594 -27.17767 -9.59303 4.04568 4.36547
-0.00676 0.00087 0.00905 169.12768 -32.05846 -3.07028 46.94116 3.63957 -17.12346 -8.96051 4.55296 -1.1306 -12.92372 -10.22082 -4.02123 28.45734 115.16574 8.70547 7.19202 -22.61781 19.82325 -9.53986 60.70436 -91.73019 8.42223 -0.45427 36.11994 1.03925 -12.50692 -21.07998 -7.20713 -2.2205 -3.35509 35.33293 12.83519 7.32776 -27.11459 -9.54927 4.04028 4.36072
-0.00873 0.001 0.01247 168.86584 -31.77991 -3.13935 46.90024 3.67402 -17.24183 -8.93012 4.46916 -1.13261 -12.77555 -10.16802 -3.84558 28.54687 112.86361 8.36908 6.7124 -23.48526 19.55576 -9.85208 60.49508 -91.97449 8.5353 -0.4993 35.69393 0.8141 -12.79761 -20.97864 -7.22444 -2.16435 -3.32689 34.82774 12.70921 7.68171 -27.05131 -9.50529 4.03479 4.3559
-0.01071 0.00112 0.01589 168.60488 -31.50336 -3.20858 46.86097 3.70832 -17.35857 -8.90157 4.3862 -1.13461 -12.63221 -10.11537 -3.67177 28.63826 110.58063 8.03446 6.23723 -24.36108 19.29074 -10.16464 60.30035 -92.21191 8.64427 -0.54325 35.27096 0.5903 -13.08214 -20.87786 -7.24177 -2.10886 -3.29902 34.32609 12.58172 8.02734 -26.9887 -9.46217 4.02974 4.35135
-0.01269 0.00125 0.01932 168.34241 -31.22304 -3.2774 46.81836 3.74287 -17.47857 -8.86926 4.30167 -1.13662 -12.47918 -10.0625 -3.49442 28.72591 108.26243 7.69672 5.75392 -25.21901 19.02112 -10.47628 60.07653 -92.46285 8.76126 -0.58931 34.84228 0.36405 -13.37883 -20.77607 -7.25901 -2.0521 -3.27051 33.81783 12.45735 8.38907 -26.92481 -9.41738 4.02382 4.34627
-0.01466 0.00138 0.02274 168.08138 -30.94627 -3.34661 46.77894 3.77719 -17.59537 -8.84059 4.21857 -1.13862 -12.3353 -10.00983 -3.32038 28.81681 105.97528 7.36172 5.27758 -26.09361 18.75562 -10.78856 59.8796 -92.70143 8.87104 -0.63345 34.41895 0.14005 -13.66416 -20.67522 -7.27635 -1.99652 -3.24259 33.31575 12.33019 8.73643 -26.86212 -9.37408 4.01867 4.34166
-0.01662 0.00151 0.02616 167.82178 -30.67346 -3.41632 46.74299 3.81125 -17.70906 -8.81572 4.13724 -1.14064 -12.2018 -9.95738 -3.15012 28.91258 103.73067 7.03043 4.81169 -26.98869 18.4955 -11.10266 59.71549 -92.92443 8.97125 -0.67513 34.00161 -0.08129 -13.9362 -20.57543 -7.29376 -1.94229 -3.21535 32.82065 12.19918 9.06439 -26.8008 -9.3328 4.0146 4.33769
-0.01865 0.00164 0.02959 167.55296 -30.3767 -3.4832 46.68578 3.84685 -17.84305 -8.76705 4.04577 -1.14261 -12.00614 -9.90358 -2.95731 28.98302 101.25501 6.67888 4.29144 -27.7663 18.20548 -11.40943 59.36244 -93.23567 9.12423 -0.73065 33.54817 -0.31821 -14.2865 -20.46926 -7.31064 -1.88002 -3.18408 32.2836 12.089 9.49845 -26.73128 -9.28051 4.00472 4.33025
-0.02053 0.00176 0.03301 167.30427 -30.13121 -3.55602 46.67423 3.87919 -17.93267 -8.7698 3.97566 -1.14467 -11.94312 -9.85268 -2.81259 29.10514 99.25829 6.36943 3.88225 -28.79119 17.9779 -11.7296 59.4079 -93.3617 9.16739 -0.75716 33.17199 -0.52206 -14.47059 -20.37677 -7.32869 -1.8349 -3.16142 31.83626 11.93577 9.71221 -26.67927 -9.25104 4.00686 4.33
-0.02204 0.00187 0.03638 167.10622 -30.02132 -3.64548 46.78261 3.90264 -17.91193 -8.90524 3.96484 -1.14694 -12.23597 -9.80909 -2.79741 29.38524 98.66411 6.18259 3.81275 -30.50617 17.92803 -12.10323 60.55879 -92.96714 8.89394 -0.70305 33.00044 -0.6364 -14.20393 -20.32021 -7.34974 -1.83566 -3.16172 31.62736 11.65548 9.28625 -26.67391 -9.28811 4.04405 4.35074
-0.02341 0.00197 0.03975 166.92961 -29.96366 -3.74075 46.93771 3.92276 -17.84455 -9.09397 3.97513 -1.1493 -12.6637 -9.76839 -2.83139 29.71439 98.53863 6.03729 3.8498 -32.46672 17.93942 -12.48664 62.10719 -92.38953 8.51332 -0.62093 32.90757 -0.71752 -13.77017 -20.27764 -7.37203 -1.85378 -3.17075 31.50982 11.33358 8.64564 -26.68633 -9.34733 4.0929 4.37844
-0.02483 0.00207 0.04312 166.74575 -29.88563 -3.83324 47.07511 3.94445 -17.79105 -9.26372 3.97558 -1.15162 -13.03476 -9.72693 -2.84385 30.01037 98.13569 5.8676 3.81332 -34.30814 17.91894 -12.85542 63.46653 -91.90289 8.19137 -0.55113 32.78387 -0.81281 -13.40837 -20.22977 -7.39393 -1.86479 -3.17626 31.35572 11.03658 8.12614 -26.69157 -9.3939 4.13505 4.40214
-0.02629 0.00217 0.04649 166.54993 -29.7942 -3.92666 47.19823 3.96613 -17.76825 -9.41113 3.97795 -1.15395 -13.38579 -9.68368 -2.8511 30.35177 97.9887 5.71886 3.87684 -36.18435 17.91668 -13.26959 64.8641 -91.38029 7.82598 -0.47923 32.64067 -0.91116 -13.05975 -20.17765 -7.41512 -1.8728 -3.18006 31.1815 10.71435 7.5065 -26.69326 -9.45157 4.18318 4.42946
-0.02764 0.00227 0.04986 166.38592 -29.74216 -4.01911 47.36148 3.98676 -17.67054 -9.61809 3.98026 -1.15627 -13.81146 -9.64418 -2.88317 30.61095 97.44118 5.53935 3.76514 -38.04319 17.88965 -13.58856 66.27384 -90.89263 7.52709 -0.40979 32.55532 -0.99625 -12.64817 -20.13745 -7.43805 -1.89086 -3.18932 31.07003 10.43465 7.0449 -26.70632 -9.49121 4.22155 4.45082
-0.02868 0.00241 0.0532 166.28926 -29.79384 -4.11083 47.62998 4.00773 -17.37682 -9.97336 3.98567 -1.15856 -14.40183 -9.62039 -2.951 30.62508 95.48093 5.23778 3.07372 -39.81862 17.79149 -13.66871 67.63847 -90.51537 7.42518 -0.31042 32.62232 -1.0445 -12.06886 -20.12883 -7.46576 -1.93509 -3.21288 31.11631 10.28375 7.07022 -26.74837 -9.47684 4.23081 4.45447
-0.02961 0.00256 0.05654 166.22691 -29.88193 -4.20064 47.93626 4.02736 -17.00945 -10.3875 3.9883 -1.16085 -15.06422 -9.59941 -3.04535 30.55633 93.13285 4.9082 2.2137 -41.56262 17.66477 -13.64855 68.99757 -90.18375 7.39546 -0.22042 32.74266 -1.08221 -11.43829 -20.13133 -7.49516 -1.98836 -3.24141 31.2214 10.17675 7.2624 -26.80089 -9.44333 4.22971 4.45178
-0.03059 0.0027 0.0599 166.1586 -29.9482 -4.28925 48.22118 4.04598 -16.67622 -10.7764 3.98717 -1.16313 -15.69909 -9.57282 -3.14189 30.52894 91.09356 4.60992 1.47865 -43.30578 17.54205 -13.65595 70.34747 -89.85367 7.34229 -0.15751 32.83069 -1.13016 -10.85431 -20.12737 -7.52359 -2.03566 -3.26674 31.29493 10.04906 7.37966 -26.84735 -9.4178 4.23289 4.45171
-0.03157 0.00285 0.0632 166.04958 -30.03837 -4.3872 48.52488 4.07115 -16.33858 -11.15985 4.00964 -1.16545 -16.31659 -9.56352 -3.1825 30.48591 88.52869 4.23728 0.54971 -45.12466 17.4561 -13.73653 71.76256 -89.43003 7.24947 0.02968 32.95523 -1.15363 -10.16704 -20.12982 -7.55283 -2.09122 -3.29624 31.39162 9.92358 7.48585 -26.89993 -9.39609 4.23828 4.45301
-0.03251 0.00299 0.06662 166.0342 -30.08697 -4.46466 48.79852 4.08262 -15.99318 -11.5691 3.97996 -1.16768 -16.98571 -9.52024 -3.34216 30.45734 86.93823 4.00905 -0.025 -46.77103 17.2901 -13.64482 73.03306 -89.20585 7.25327 -0.03323 33.01573 -1.22639 -9.68377 -20.12138 -7.58089 -2.13178 -3.31827 31.45339 9.80379 7.65721 -26.94201 -9.36159 4.23644 4.44984
-0.03342 0.00309 0.0703 166.26081 -30.00922 -4.49042 48.97335 4.0549 -15.64438 -12.02486 3.8242 -1.16958 -17.77832 -9.37033 -3.8514 30.46978 88.32482 4.21544 0.4908 -47.98175 16.87474 -13.06701 73.92326 -89.59798 7.5468 -0.88404 32.88254 -1.43496 -9.78651 -20.07997 -7.60437 -2.12632 -3.31724 31.39922 9.69465 7.97147 -26.95246 -9.2963 4.21724 4.43591
